<?xml version="1.0" standalone="no"?>
<!DOCTYPE svg PUBLIC "-//W3C//DTD SVG 20010904//EN"
 "http://www.w3.org/TR/2001/REC-SVG-20010904/DTD/svg10.dtd">
<svg version="1.0" xmlns="http://www.w3.org/2000/svg"
 width="1024.000000pt" height="1024.000000pt" viewBox="0 0 1024.000000 1024.000000"
 preserveAspectRatio="xMidYMid meet">
<metadata>
Created by potrace 1.16, written by Peter Selinger 2001-2019
</metadata>
<g transform="translate(0.000000,1024.000000) scale(0.100000,-0.100000)"
fill="#000000" stroke="none">
<path d="M4690 8029 c-441 -35 -953 -139 -1274 -259 l-57 -22 4 -1076 c3 -945
6 -1089 20 -1172 85 -483 300 -887 667 -1250 273 -270 651 -516 999 -651 l75
-29 130 56 c632 269 1159 748 1417 1289 91 190 139 343 182 570 19 106 20 154
24 1187 l4 1076 -58 22 c-270 101 -733 203 -1118 245 -176 20 -831 29 -1015
14z m808 -119 c403 -29 802 -101 1122 -203 l135 -43 -2 -988 c-1 -620 -6
-1025 -13 -1085 -53 -473 -277 -904 -665 -1279 -119 -116 -366 -312 -392 -312
-9 0 -13 18 -13 56 0 36 -5 61 -15 70 -13 14 -15 7 -14 -58 0 -44 3 -65 8 -54
7 19 8 19 13 -1 5 -18 -5 -29 -51 -61 -61 -42 -222 -132 -237 -132 -5 0 -11
23 -12 52 -1 29 -6 54 -11 57 -4 4 -11 13 -14 21 -3 8 -6 -24 -6 -71 l-1 -87
-92 -41 -93 -40 -6 27 -7 27 -1 -29 c-1 -27 -3 -28 -33 -22 -41 8 -352 162
-435 215 -53 34 -63 45 -63 69 0 19 -5 29 -15 29 -8 0 -15 -9 -15 -19 0 -16
-3 -17 -21 -8 -66 36 -283 213 -397 324 -412 404 -626 845 -662 1372 -6 91 -9
503 -8 1059 l3 910 100 33 c289 94 693 173 1035 202 69 5 141 12 160 14 87 8
586 5 718 -4z"/>
<path d="M4672 7350 c2 -8 -3 -14 -10 -12 -7 1 -2 -13 12 -35 17 -25 22 -41
16 -47 -6 -6 -10 -50 -10 -98 l0 -88 90 0 90 0 0 -45 0 -45 135 0 135 0 0 -40
0 -40 -40 0 -40 0 0 -44 0 -44 40 -4 40 -4 0 48 0 48 40 0 40 0 0 40 0 40 -40
0 -40 0 0 89 0 90 43 3 42 3 3 48 3 47 -45 0 -46 0 0 -50 0 -50 -85 0 -85 0 0
50 c0 48 -1 50 -27 51 -16 0 -36 2 -45 4 -15 3 -18 -4 -18 -45 l0 -48 46 -7
45 -6 -3 -42 -3 -42 -47 -3 -48 -3 0 45 0 46 -45 0 -45 0 0 50 c0 42 -3 50
-19 50 -11 0 -23 11 -30 28 -14 34 -53 82 -49 62z"/>
<path d="M5498 7262 c-14 -3 -18 -14 -18 -53 l0 -49 -40 0 -40 0 0 -45 0 -45
-50 0 -50 0 0 45 0 45 -40 0 -40 0 0 -90 0 -90 90 0 90 0 0 45 0 45 85 0 86 0
-3 98 c-3 96 -3 97 -28 98 -14 0 -33 -2 -42 -4z"/>
<path d="M3880 7238 c0 -13 4 -18 8 -13 8 12 19 12 46 0 12 -5 28 -2 46 9 28
16 130 23 143 10 4 -4 -3 -15 -15 -25 -16 -15 -24 -16 -35 -8 -7 7 -16 9 -20
5 -3 -3 -1 -6 6 -6 27 0 -17 -29 -50 -33 -19 -2 34 -4 116 -5 83 0 143 2 135
6 -9 4 -15 12 -15 17 0 20 41 53 70 58 17 2 -75 5 -202 6 l-233 1 0 -22z"/>
<path d="M4471 7256 c2 -2 19 -6 37 -8 31 -4 47 -22 20 -23 -7 -1 -12 -6 -10
-13 1 -7 -2 -12 -8 -12 -14 0 -13 13 2 28 9 9 9 12 1 12 -7 0 -14 -9 -18 -19
-4 -12 -12 -18 -20 -15 -8 3 -26 -3 -40 -14 l-26 -21 33 -3 c31 -3 33 -6 36
-43 2 -22 1 -136 -3 -252 l-7 -213 -249 0 -249 0 -1 173 c0 94 -4 190 -8 212
-5 22 -9 35 -10 28 -2 -20 -44 1 -58 28 -10 20 -13 -28 -13 -259 l0 -283 343
3 342 3 -1 235 c-1 129 -2 286 -3 348 l-1 112 -47 0 c-25 0 -44 -2 -42 -4z"/>
<path d="M5690 6910 l0 -350 345 0 345 0 0 350 0 350 -345 0 -345 0 0 -350z
m270 330 c-13 -8 -12 -10 5 -11 47 -4 120 4 123 12 2 5 16 9 31 9 29 0 59 -38
47 -59 -10 -16 -266 -13 -280 3 -6 6 -20 22 -30 34 l-19 22 69 0 c48 0 64 -3
54 -10z m330 -325 l0 -255 -255 0 -255 0 0 255 0 255 255 0 255 0 0 -255z"/>
<path d="M5880 6910 l0 -150 150 0 150 0 0 150 0 150 -150 0 -150 0 0 -150z"/>
<path d="M4070 6910 l0 -150 150 0 150 0 0 150 0 150 -150 0 -150 0 0 -150z"/>
<path d="M5480 6940 l0 -40 -40 0 -40 0 0 -50 0 -50 85 0 85 0 0 90 0 90 -45
0 -45 0 0 -40z"/>
<path d="M4200 6405 l0 -45 -80 0 -80 0 0 -69 c0 -91 5 -101 46 -101 33 0 34
-1 34 -40 0 -39 -1 -40 -35 -40 -33 0 -35 2 -41 40 -6 37 -9 40 -40 40 -30 0
-34 3 -34 25 0 23 -4 25 -45 25 l-45 0 0 -61 c0 -33 -5 -69 -10 -80 -7 -13 -7
-19 0 -19 5 0 10 -7 10 -15 0 -12 14 -15 68 -15 37 0 72 -4 79 -8 6 -4 13 -25
15 -47 3 -38 5 -40 41 -43 l37 -3 0 80 0 81 40 0 40 0 0 -125 0 -125 45 0 45
0 0 125 0 125 90 0 90 0 0 -29 c0 -26 4 -29 41 -35 22 -4 44 -4 50 -1 5 4 9
49 9 101 l0 94 -50 0 c-47 0 -50 -2 -50 -25 0 -23 -4 -25 -45 -25 l-45 0 0 40
0 40 45 0 45 0 0 45 0 45 43 0 c24 0 46 2 48 4 3 3 3 23 1 45 l-4 41 -44 0
-44 0 0 -45 0 -45 -45 0 -45 0 0 45 0 45 -90 0 -90 0 0 -45z m90 -170 l0 -125
-45 0 -45 0 0 125 0 125 45 0 45 0 0 -125z"/>
<path d="M5870 6360 l0 -90 -40 0 -40 0 0 -40 0 -40 74 0 73 0 7 40 c6 39 7
40 46 40 l40 0 0 -120 0 -120 40 0 40 0 0 40 0 40 45 0 45 0 0 40 0 40 45 0
45 0 0 -40 0 -40 44 0 c51 0 56 11 48 104 l-4 56 -44 0 -44 0 0 45 0 45 45 0
45 0 0 45 0 45 -45 0 -45 0 0 -45 0 -45 -45 0 -45 0 0 45 0 45 -39 0 -40 0 -6
-52 c-4 -29 -5 -69 -3 -88 3 -33 5 -35 46 -38 42 -3 42 -3 42 -43 l0 -39 -45
0 -45 0 0 40 0 40 -40 0 -40 0 0 90 0 90 -80 0 -80 0 0 -90z"/>
<path d="M5320 6436 c0 -12 135 -276 141 -276 4 0 12 14 18 30 5 17 13 30 17
30 3 0 28 -18 55 -41 l49 -41 20 23 19 24 -44 39 c-25 21 -45 42 -45 47 0 5
14 18 32 29 l32 19 -34 15 c-19 8 -80 33 -135 56 -55 23 -106 44 -112 47 -7 3
-13 2 -13 -1z"/>
<path d="M4983 6231 l-133 -65 0 -67 0 -68 -79 -38 -80 -38 0 -126 -1 -125
218 -112 217 -111 213 112 212 112 0 125 0 125 -78 40 -77 41 -3 65 -3 65
-135 67 c-74 37 -135 66 -137 65 -1 -1 -62 -31 -134 -67z m247 -30 l95 -49
-100 -50 -100 -50 -98 49 c-53 27 -97 51 -97 54 0 8 174 94 190 94 8 0 58 -22
110 -48z m-225 -134 l100 -52 3 -67 c2 -38 1 -68 -2 -68 -3 0 -53 24 -111 52
l-105 53 0 67 c0 38 3 68 8 68 4 -1 52 -24 107 -53z m353 -14 l-3 -68 -100
-52 c-55 -29 -104 -52 -108 -53 -4 0 -7 30 -5 68 l3 67 100 52 c55 29 104 52
108 53 5 0 7 -30 5 -67z m82 -83 c22 -11 40 -24 40 -28 0 -4 -80 -48 -177 -99
l-176 -92 -183 92 c-101 50 -184 95 -184 98 0 13 84 41 88 29 5 -13 255 -140
276 -140 26 0 266 131 266 146 0 18 3 18 50 -6z m-352 -247 c20 -12 22 -21 22
-98 0 -47 -2 -85 -5 -85 -3 0 -88 42 -190 92 l-185 93 0 92 0 93 168 -86 c92
-48 177 -93 190 -101z m426 116 c11 -114 26 -97 -179 -203 -102 -53 -188 -96
-191 -96 -2 0 -3 39 -2 88 l3 87 175 92 c96 51 178 93 181 93 3 0 9 -28 13
-61z"/>
<path d="M5790 6076 c0 -31 -3 -34 -35 -40 -20 -4 -40 -4 -45 -1 -6 4 -10 -29
-10 -89 l0 -96 45 0 45 0 0 -40 0 -40 -95 0 -95 0 0 -135 0 -135 -66 0 -65 0
3 -42 3 -43 68 -3 67 -3 0 -34 0 -35 -100 0 -100 0 0 -45 0 -45 38 0 37 0 -3
-45 -4 -45 45 0 46 0 3 -47 3 -48 98 -3 97 -3 0 51 0 50 -100 0 -100 0 0 45 0
45 70 0 70 0 0 53 0 52 118 0 117 0 3 -52 3 -53 -85 0 -86 0 0 -44 0 -45 43
-3 42 -3 3 -47 3 -48 40 0 39 0 0 50 0 50 40 0 40 0 0 45 0 45 85 0 85 0 0
-45 0 -45 -45 0 -45 0 0 -50 0 -50 45 0 45 0 0 50 0 50 45 0 45 0 0 -50 0 -50
45 0 45 0 0 95 0 95 -90 0 -90 0 0 44 0 45 -42 3 -43 3 -3 48 -3 47 -45 0 -45
0 4 205 4 205 -43 0 -44 0 0 -40 c0 -39 -1 -40 -35 -40 -35 0 -35 0 -35 45 0
45 0 45 35 45 34 0 35 1 35 40 l0 40 45 0 45 0 0 40 0 40 -45 0 -45 0 0 -40
c0 -39 -1 -40 -35 -40 l-35 0 0 85 0 85 -40 0 c-39 0 -40 -1 -40 -34z m134
-513 l1 -113 -112 0 -113 0 0 115 0 116 112 -3 111 -3 1 -112z"/>
<path d="M4380 6000 l0 -40 45 0 45 0 0 -51 0 -50 46 3 46 3 2 42 2 42 -45 3
-46 3 -3 43 -3 42 -45 0 -44 0 0 -40z"/>
<path d="M6114 5996 c-11 -47 -2 -61 44 -64 l42 -3 0 -45 0 -44 -45 0 -46 0 3
-147 3 -147 33 1 c17 1 37 2 42 2 6 1 10 57 10 146 l0 145 90 0 90 0 0 45 0
45 -90 0 -90 0 0 45 0 45 -40 0 c-34 0 -41 -4 -46 -24z"/>
<path d="M3880 5405 l0 -345 339 0 339 0 4 128 c2 70 2 225 0 345 l-5 217 -68
0 c-54 0 -67 -3 -63 -14 5 -14 -49 -40 -60 -29 -3 3 -13 0 -23 -8 -11 -9 -14
-10 -9 -1 4 7 1 12 -8 12 -24 0 -19 19 7 30 15 6 -16 9 -98 9 -84 1 -125 -3
-134 -11 -11 -10 -13 -10 -7 0 4 6 2 12 -3 12 -6 0 -11 -4 -11 -10 0 -5 -5
-10 -11 -10 -5 0 -7 5 -4 10 4 6 -28 10 -89 10 l-96 0 0 -345z m598 -2 l3
-253 -255 0 -256 0 -2 228 c-2 125 -5 225 -8 222 -7 -7 -39 23 -34 32 3 4 11
5 18 2 7 -3 16 2 19 11 6 13 37 15 259 13 l253 -3 3 -252z"/>
<path d="M4070 5400 l0 -150 150 0 150 0 0 150 0 150 -150 0 -150 0 0 -150z"/>
<path d="M6200 5445 l0 -95 90 0 90 0 0 45 0 45 -45 0 -45 0 0 50 0 50 -45 0
-45 0 0 -95z"/>
<path d="M4680 5440 l0 -90 44 0 45 0 3 43 c3 41 4 42 41 45 37 3 37 4 37 48
l0 44 -85 0 -85 0 0 -90z"/>
<path d="M5240 5395 l0 -45 85 0 85 0 0 45 0 45 -85 0 -85 0 0 -45z"/>
<path d="M4880 5385 l0 -45 -40 0 -40 0 0 -45 0 -45 -60 0 -60 0 0 -45 0 -45
100 0 100 0 0 -51 0 -50 43 3 42 3 3 48 3 47 -45 0 -46 0 0 45 0 45 45 0 45 0
0 90 0 90 -45 0 -45 0 0 -45z"/>
<path d="M5140 5295 l0 -45 -40 0 -40 0 0 -44 c0 -44 0 -45 38 -48 37 -3 37
-3 40 -50 l3 -48 40 0 c36 0 39 2 39 28 0 61 9 72 56 72 l44 0 0 -50 0 -50 45
0 45 0 0 50 0 50 -45 0 -45 0 0 45 0 45 -45 0 -45 0 0 45 0 45 -45 0 -45 0 0
-45z"/>
<path d="M10116 6161 c4 -36 1 -46 -16 -58 -11 -8 -18 -19 -15 -24 4 -5 1 -9
-6 -9 -9 0 -10 -3 -2 -11 17 -17 3 -49 -20 -49 -20 0 -21 0 -1 16 18 14 17 14
-6 3 -14 -7 -34 -13 -45 -13 -12 -1 -19 -7 -17 -15 2 -9 -3 -11 -13 -7 -9 3
-18 6 -21 6 -2 0 -1 7 2 15 4 8 1 15 -5 15 -6 0 -11 -5 -11 -11 0 -6 -7 -9
-14 -6 -10 4 -13 1 -9 -9 3 -7 14 -14 24 -14 10 0 19 -7 19 -15 0 -21 -13 -19
-41 6 -21 18 -24 18 -27 5 -4 -20 -9 -20 -28 -1 -9 9 -11 15 -4 15 6 0 8 5 5
10 -5 8 -12 7 -23 -2 -13 -11 -14 -11 -8 1 6 9 5 12 -5 9 -8 -3 -14 -13 -14
-24 0 -10 -3 -24 -8 -31 -5 -8 -1 -11 13 -8 23 4 26 -7 6 -24 -14 -12 -29 -1
-38 28 -3 12 -6 12 -11 -2 -3 -9 -2 -17 4 -17 6 0 8 -4 5 -9 -7 -11 13 -28 38
-33 14 -2 23 6 32 32 12 29 13 30 9 7 -4 -19 -2 -26 5 -22 5 3 10 2 10 -2 0
-5 -10 -13 -22 -18 -13 -6 -22 -17 -20 -24 1 -7 -2 -10 -8 -6 -5 3 -10 1 -10
-4 0 -6 -5 -11 -11 -11 -6 0 -8 7 -5 17 9 21 -13 34 -36 22 -17 -9 -23 -2 -19
23 1 10 -37 20 -49 13 -5 -3 -10 -1 -10 4 0 6 10 11 23 12 12 0 16 3 9 6 -10
4 -10 8 0 21 10 11 10 16 1 19 -7 2 -9 12 -6 21 4 14 3 14 -5 3 -6 -8 -8 -19
-6 -26 3 -6 -2 -12 -10 -12 -8 0 -13 4 -11 8 8 12 -24 4 -38 -10 -9 -10 -8
-11 6 -6 13 5 17 2 17 -13 0 -25 23 -44 44 -36 9 3 16 2 16 -3 0 -5 -13 -13
-28 -19 -24 -9 -31 -8 -39 5 -10 14 -11 14 -10 -4 2 -14 -6 -21 -28 -25 -36
-7 -36 -3 -9 -220 24 -194 27 -810 6 -1005 -33 -294 -107 -643 -197 -925 -99
-309 -287 -713 -459 -985 -723 -1145 -1907 -1915 -3222 -2094 -233 -32 -370
-41 -642 -41 -166 0 -251 -3 -247 -10 3 -5 0 -10 -8 -10 -20 0 -45 -30 -26
-31 8 -1 17 -1 22 0 17 3 5 -29 -15 -40 -15 -8 -18 -14 -10 -17 7 -2 24 8 37
22 18 20 24 22 29 11 3 -8 1 -15 -4 -15 -6 0 -10 -9 -10 -21 0 -15 5 -19 15
-15 8 3 15 1 15 -4 0 -6 -7 -10 -15 -10 -8 0 -15 -6 -15 -14 0 -26 17 -26 43
0 25 24 26 25 36 6 8 -15 7 -20 -2 -19 -37 1 -49 -4 -40 -15 5 -7 8 -19 7 -25
-1 -7 -2 -19 -3 -25 -1 -9 -6 -7 -15 5 -15 20 -30 23 -23 5 4 -14 -32 -50 -46
-45 -12 4 -8 23 5 19 5 -1 6 2 3 8 -9 15 24 51 39 43 6 -3 5 0 -2 8 -10 11
-16 11 -32 1 -27 -17 -25 -8 6 23 26 26 25 49 -1 39 -8 -4 -13 -10 -10 -14 3
-5 -4 -15 -15 -23 -11 -7 -17 -17 -13 -20 12 -13 -33 -7 -46 5 -11 10 -13 10
-7 1 4 -8 1 -13 -8 -13 -27 0 -18 -15 10 -17 39 -2 51 -19 29 -43 -21 -23 -35
-18 -28 10 7 26 0 25 -33 -5 -20 -19 -23 -25 -10 -25 9 0 16 5 16 11 0 5 5 7
10 4 7 -4 6 -13 -1 -27 -8 -15 -8 -19 0 -14 6 4 11 3 11 -3 0 -5 -6 -12 -12
-14 -8 -3 -6 -6 5 -6 20 -1 23 -17 5 -24 -8 -3 -6 -6 5 -6 9 -1 17 4 17 11 0
6 3 8 7 4 5 -4 0 -13 -9 -20 -12 -9 -16 -23 -14 -43 4 -27 2 -30 -16 -25 -11
2 -16 8 -11 11 13 10 9 46 -5 46 -7 0 -17 7 -23 15 -8 11 -12 12 -16 2 -2 -6
-10 -9 -15 -6 -7 4 -8 2 -4 -4 4 -7 15 -12 26 -12 22 0 33 -26 21 -48 -9 -16
-10 -16 -16 1 -10 24 -55 23 -55 -2 0 -10 7 -21 15 -25 8 -3 15 -11 14 -18 0
-10 -2 -10 -6 0 -2 6 -14 12 -24 12 -11 0 -17 4 -14 10 3 5 1 10 -5 10 -6 0
-10 -8 -8 -17 2 -10 10 -17 17 -15 7 1 10 -2 6 -8 -3 -6 -10 -8 -15 -5 -5 3
-13 -3 -19 -12 -5 -10 -13 -17 -18 -16 -4 1 -7 -5 -5 -13 2 -11 -5 -13 -35 -9
-28 4 -34 3 -23 -4 12 -9 11 -11 -6 -11 -21 0 -39 24 -30 38 2 4 -8 7 -24 7
-24 1 -26 -2 -17 -17 16 -24 8 -27 -40 -18 -24 4 -43 4 -43 0 0 -4 62 -14 138
-23 869 -106 1722 6 2542 334 189 75 535 249 725 364 831 502 1494 1221 1924
2085 258 519 406 992 490 1570 79 541 73 1015 -19 1560 -31 182 -55 289 -44
201z"/>
<path d="M2370 3067 c-49 -16 -123 -93 -138 -143 -43 -145 31 -280 173 -316
35 -9 59 -24 83 -50 18 -20 49 -42 69 -49 48 -15 114 -7 152 20 l31 23 -21 29
-21 29 -25 -20 c-14 -11 -36 -20 -49 -20 -25 0 -74 19 -74 29 0 3 22 18 49 33
156 86 161 317 8 412 -40 25 -60 30 -125 32 -42 2 -93 -2 -112 -9z m181 -90
c48 -32 82 -100 76 -156 -9 -79 -77 -141 -157 -141 -116 0 -193 124 -144 231
38 85 149 117 225 66z"/>
<path d="M2820 2847 l0 -235 45 -4 45 -3 0 72 0 73 63 0 62 0 41 -73 42 -72
46 3 c25 2 46 6 46 9 0 2 -20 36 -46 75 -25 39 -44 71 -42 73 2 1 14 8 26 14
57 30 81 161 39 221 -42 63 -75 75 -229 78 l-138 4 0 -235z m273 133 c53 -42
39 -127 -24 -149 -18 -6 -61 -11 -95 -11 l-64 0 0 90 0 90 79 0 c63 0 83 -4
104 -20z"/>
<path d="M3510 2845 l0 -235 45 0 45 0 0 235 0 235 -45 0 -45 0 0 -235z"/>
<path d="M3740 2845 l0 -235 44 0 44 0 -5 155 c-4 98 -2 155 4 155 5 0 62 -70
127 -155 l117 -155 44 0 45 0 0 235 0 235 -45 0 -45 0 0 -162 c0 -156 -1 -162
-18 -141 -9 11 -66 84 -126 162 -106 139 -109 141 -147 141 l-39 0 0 -235z"/>
<path d="M4240 3072 c0 -9 142 -356 175 -429 14 -31 18 -33 63 -33 l48 0 88
218 c113 280 107 252 55 252 l-44 0 -59 -152 c-33 -84 -66 -168 -74 -187 l-14
-35 -72 185 -72 184 -47 3 c-26 2 -47 -1 -47 -6z"/>
<path d="M4780 2845 l0 -235 180 0 180 0 0 35 0 35 -135 0 -136 0 3 63 3 62
113 3 112 3 0 34 0 34 -112 3 -113 3 -3 58 -3 57 131 0 130 0 0 40 0 40 -175
0 -175 0 0 -235z"/>
<path d="M5250 2845 l0 -235 45 0 44 0 3 155 3 155 119 -155 119 -155 44 0 43
0 0 235 0 235 -45 0 -45 0 -2 -160 -3 -160 -123 160 c-122 159 -124 160 -163
160 l-39 0 0 -235z"/>
<path d="M5750 3040 l0 -40 75 0 75 0 0 -195 0 -195 45 0 45 0 0 195 0 195 76
0 75 0 -3 38 -3 37 -192 3 -193 2 0 -40z"/>
<path d="M6254 2853 c-54 -125 -100 -230 -102 -235 -2 -4 17 -8 42 -8 45 0 46
0 67 50 l21 50 115 0 114 0 21 -50 21 -50 47 0 48 0 -97 223 c-53 122 -100
228 -104 235 -5 6 -27 12 -51 12 l-42 0 -100 -227z m189 25 c19 -47 33 -89 30
-92 -9 -9 -153 -7 -153 2 0 18 75 191 81 184 3 -4 22 -46 42 -94z"/>
<path d="M6730 2846 l0 -236 45 0 45 0 0 70 0 71 62 -3 62 -3 39 -67 39 -68
49 0 c37 0 48 3 43 13 -4 6 -25 40 -46 74 l-39 62 34 31 c60 53 73 164 25 225
-38 49 -72 59 -220 63 l-138 4 0 -236z m275 129 c33 -32 33 -84 2 -121 -21
-24 -32 -28 -105 -32 l-82 -5 0 92 0 91 80 0 c73 0 83 -3 105 -25z"/>
<path d="M7235 3070 c-7 -11 -4 -346 3 -417 4 -42 5 -43 43 -43 l39 0 0 235 0
235 -39 0 c-22 0 -43 -5 -46 -10z"/>
<path d="M7576 3066 c-21 -8 -58 -34 -82 -57 -119 -117 -89 -302 61 -382 57
-31 183 -31 241 0 116 62 163 206 105 322 -23 44 -65 87 -106 109 -42 21 -169
26 -219 8z m184 -89 c95 -63 99 -204 8 -269 -45 -31 -143 -33 -185 -2 -33 24
-73 97 -73 134 0 40 42 113 79 137 47 32 125 32 171 0z"/>
<path d="M5720 2270 c0 -103 2 -120 16 -120 14 0 15 12 9 96 -5 56 -4 94 1 91
5 -3 27 -42 49 -86 21 -45 42 -81 45 -81 3 0 23 36 45 80 22 44 43 80 48 80 4
0 7 -40 7 -90 0 -53 4 -90 10 -90 6 0 10 47 10 120 0 93 -3 120 -13 120 -8 0
-34 -38 -58 -85 -24 -47 -46 -85 -49 -85 -3 0 -25 38 -48 85 -60 122 -72 116
-72 -35z"/>
</g>
</svg>
